Coordinates
version=1
nRows=10
nColumns=46
inDegrees=yes

Units are S.I. units (second, meters, Newtons, ...)
Angles are in degrees.

endheader
time	pelvis_tilt	pelvis_list	pelvis_rotation	pelvis_tx	pelvis_ty	pelvis_tz	bb_angle	bb_tx	bb_ty	bb_tz	hip_flexion_r	hip_adduction_r	hip_rotation_r	knee_angle_r	knee_angle_r_beta	ankle_angle_r	subtalar_angle_r	mtp_angle_r	crank_angle_r	hip_flexion_l	hip_adduction_l	hip_rotation_l	knee_angle_l	knee_angle_l_beta	ankle_angle_l	subtalar_angle_l	mtp_angle_l	crank_angle_l	lumbar_extension	lumbar_bending	lumbar_rotation	arm_flex_r	arm_add_r	arm_rot_r	elbow_flex_r	pro_sup_r	wrist_flex_r	wrist_dev_r	arm_flex_l	arm_add_l	arm_rot_l	elbow_flex_l	pro_sup_l	wrist_flex_l	wrist_dev_l
      5.00000000	    -20.34230768	     -6.91932056	      2.13234535	      0.06628498	      0.98860184	     -0.23864966	      0.00000000	      0.50000000	      0.00000000	      0.25000000	     89.88421971	     -2.27933721	      4.41215594	    112.77682718	      1.96832695	    -24.58793838	     -8.75502533	      0.00000000	      0.00000000	     53.65337862	     -7.71476516	      0.75263130	     34.05173378	      0.59431487	      3.56332601	     -2.39057334	      0.00000000	      0.00000000	    -47.27044448	     10.75732717	      3.07177213	     89.49577597	     -1.40290089	     30.32219377	     38.02875540	     38.19798903	      0.00000000	      0.00000000	     89.12127092	    -18.71225726	     47.12655729	     43.91863271	     36.33315147	      0.00000000	      0.00000000
      5.00500000	    -20.02755260	     -6.93236881	      1.17344170	      0.06691319	      0.98934415	     -0.23880006	      0.00000000	      0.50000000	      0.00000000	      0.25000000	     91.47974819	     -1.46750282	      4.69765132	    113.64498397	      1.98347915	    -25.88265194	     -8.75808373	      0.00000000	      0.00000000	     51.51470267	     -8.37267720	      0.10280902	     32.31501107	      0.56400334	      2.60246901	     -2.96703081	      0.00000000	      0.00000000	    -47.70497034	     10.53141708	      3.82960944	     89.51171077	     -1.49995828	     30.88750565	     38.47048665	     38.13466190	      0.00000000	      0.00000000	     89.12236824	    -18.93748910	     47.80096935	     43.55360254	     36.38901950	      0.00000000	      0.00000000
      5.01000000	    -19.93649839	     -7.25040976	      0.26035366	      0.06733496	      0.98973949	     -0.23887412	      0.00000000	      0.50000000	      0.00000000	      0.25000000	     93.23322364	     -0.77165655	      4.52176526	    114.35697724	      1.99590578	    -26.89724095	     -8.33150433	      0.00000000	      0.00000000	     49.85287922	     -9.20740081	     -0.19958777	     30.93874201	      0.53998291	      2.07027122	     -2.96994102	      0.00000000	      0.00000000	    -47.92408168	     10.57952069	      4.68672542	     89.53308809	     -1.36431814	     31.09515734	     38.68820406	     38.13433129	      0.00000000	      0.00000000	     89.03091210	    -19.25479154	     47.94196248	     43.35707031	     36.39218235	      0.00000000	      0.00000000
      5.01500000	    -19.76798029	     -7.38373829	     -0.75813523	      0.06808602	      0.99053314	     -0.23897425	      0.00000000	      0.50000000	      0.00000000	      0.25000000	     94.86639693	     -0.02997660	      4.45866813	    115.01668800	      2.00741990	    -27.51122077	     -8.34287143	      0.00000000	      0.00000000	     48.09312656	    -10.01787282	     -0.94284440	     29.72617981	      0.51881971	      1.46569576	     -3.10100582	      0.00000000	      0.00000000	    -48.25685109	     10.41644207	      5.53789795	     89.54279754	     -1.33591528	     31.27811840	     38.89639990	     38.12151468	      0.00000000	      0.00000000	     88.93375336	    -19.49564096	     48.20195654	     43.10293812	     36.39613645	      0.00000000	      0.00000000
      5.02000000	    -19.58321659	     -7.50373225	     -1.62119436	      0.06862227	      0.99153797	     -0.23875485	      0.00000000	      0.50000000	      0.00000000	      0.25000000	     96.42280838	      0.60427809	      4.33796890	    115.56740955	      2.01703180	    -28.21797681	     -8.17732576	      0.00000000	      0.00000000	     46.43842235	    -10.74216664	     -1.64037071	     28.69623313	      0.50084375	      0.76502425	     -2.96773387	      0.00000000	      0.00000000	    -48.60498379	     10.23519378	      6.28312612	     89.56033837	     -1.26274032	     31.44174413	     39.12540495	     38.11414023	      0.00000000	      0.00000000	     88.88733142	    -19.68157859	     48.45240757	     42.85373182	     36.39413382	      0.00000000	      0.00000000
      5.02500000	    -19.21154782	     -7.37585028	     -2.82421891	      0.06972345	      0.99337020	     -0.23813355	      0.00000000	      0.50000000	      0.00000000	      0.25000000	     97.68455233	      1.54185975	      4.32312809	    116.02983952	      2.02510273	    -28.64851091	     -8.38795865	      0.00000000	      0.00000000	     44.44585030	    -11.59813246	     -3.16854251	     27.76442333	      0.48458060	      0.45202984	     -2.75460277	      0.00000000	      0.00000000	    -49.18991845	      9.52535009	      7.14716213	     89.55730481	     -1.71763173	     31.83902028	     39.81013786	     38.00893198	      0.00000000	      0.00000000	     88.93571611	    -19.58070651	     49.40541604	     42.23905812	     36.45901844	      0.00000000	      0.00000000
      5.03000000	    -19.27160808	     -7.63865208	     -3.62352058	      0.07005879	      0.99440441	     -0.23803289	      0.00000000	      0.50000000	      0.00000000	      0.25000000	     99.29245474	      2.02941844	      3.91512801	    116.32689676	      2.03028736	    -28.87392385	     -8.09193833	      0.00000000	      0.00000000	     43.25741161	    -12.34592651	     -3.62790147	     27.13690918	      0.47362841	      0.02763980	     -2.51978997	      0.00000000	      0.00000000	    -49.35762832	      9.54603564	      7.85314474	     89.56896150	     -1.53194147	     32.00752921	     40.05270737	     38.00622127	      0.00000000	      0.00000000	     88.85395734	    -19.79155849	     49.48904398	     41.99238661	     36.44334183	      0.00000000	      0.00000000
      5.03500000	    -19.25704200	     -7.72257939	     -4.52647869	      0.07049767	      0.99583795	     -0.23756075	      0.00000000	      0.50000000	      0.00000000	      0.25000000	    100.76412714	      2.62401302	      3.60785671	    116.53906083	      2.03399032	    -28.89736712	     -7.86921041	      0.00000000	      0.00000000	     42.00519980	    -13.07131293	     -4.48397039	     26.64566836	      0.46505464	     -0.75845464	     -1.80290467	      0.00000000	      0.00000000	    -49.60290990	      9.24117072	      8.48695963	     89.57386542	     -1.42236789	     32.16796207	     40.33242017	     37.98964737	      0.00000000	      0.00000000	     88.77498060	    -19.89510506	     49.62118801	     41.71045070	     36.43396549	      0.00000000	      0.00000000
      5.04000000	    -19.14278306	     -7.62661234	     -5.23810965	      0.07090730	      0.99715042	     -0.23688751	      0.00000000	      0.50000000	      0.00000000	      0.25000000	    102.11744657	      3.02937520	      3.41173886	    116.77882365	      2.03817497	    -28.72112763	     -7.70927347	      0.00000000	      0.00000000	     40.79638656	    -13.56738928	     -5.41383923	     26.45406966	      0.46171062	     -0.96153193	     -1.21841491	      0.00000000	      0.00000000	    -49.87098030	      8.83942284	      8.90111068	     89.57475277	     -1.37019734	     32.31875545	     40.64174632	     37.95808266	      0.00000000	      0.00000000	     88.74173220	    -19.90744444	     49.74732534	     41.38911354	     36.42480407	      0.00000000	      0.00000000
      5.04500000	    -19.15289833	     -7.60450976	     -5.89641048	      0.07103252	      0.99866683	     -0.23631600	      0.00000000	      0.50000000	      0.00000000	      0.25000000	    103.42043362	      3.42517560	      3.14738309	    116.77710242	      2.03814493	    -28.64175427	     -7.48424835	      0.00000000	      0.00000000	     39.87247069	    -14.05591764	     -6.09611585	     26.46505918	      0.46190242	     -1.22716628	     -0.78571036	      0.00000000	      0.00000000	    -50.08933741	      8.55106176	      9.30478415	     89.58352195	     -1.26242053	     32.43145245	     40.90536561	     37.92482509	      0.00000000	      0.00000000	     88.73259439	    -19.94297425	     49.77450292	     41.11080049	     36.41101316	      0.00000000	      0.00000000
